<mxfile host="app.diagrams.net" agent="Mozilla/5.0 (Windows NT 10.0; Win64; x64) AppleWebKit/537.36 (KHTML, like Gecko) Chrome/137.0.0.0 Safari/537.36" version="27.1.4">
  <diagram name="Página-1" id="LSa585z5DlNZ0hhu597N">
    <mxGraphModel dx="2250" dy="624" grid="1" gridSize="10" guides="1" tooltips="1" connect="1" arrows="1" fold="1" page="1" pageScale="1" pageWidth="827" pageHeight="1169" math="0" shadow="0">
      <root>
        <mxCell id="0" />
        <mxCell id="1" parent="0" />
        <mxCell id="OiiH3KWqHJdRT1orfoy_-14" style="edgeStyle=orthogonalEdgeStyle;rounded=0;orthogonalLoop=1;jettySize=auto;html=1;entryX=0;entryY=0.5;entryDx=0;entryDy=0;" edge="1" parent="1" source="2jVrClkyNnCrI50fUXQd-1" target="OiiH3KWqHJdRT1orfoy_-13">
          <mxGeometry relative="1" as="geometry" />
        </mxCell>
        <mxCell id="OiiH3KWqHJdRT1orfoy_-26" style="edgeStyle=orthogonalEdgeStyle;rounded=0;orthogonalLoop=1;jettySize=auto;html=1;exitX=0;exitY=0.5;exitDx=0;exitDy=0;entryX=1;entryY=0.5;entryDx=0;entryDy=0;" edge="1" parent="1" source="2jVrClkyNnCrI50fUXQd-1" target="2jVrClkyNnCrI50fUXQd-5">
          <mxGeometry relative="1" as="geometry" />
        </mxCell>
        <mxCell id="OiiH3KWqHJdRT1orfoy_-52" style="edgeStyle=orthogonalEdgeStyle;rounded=0;orthogonalLoop=1;jettySize=auto;html=1;exitX=0.5;exitY=1;exitDx=0;exitDy=0;" edge="1" parent="1" source="2jVrClkyNnCrI50fUXQd-1" target="OiiH3KWqHJdRT1orfoy_-33">
          <mxGeometry relative="1" as="geometry" />
        </mxCell>
        <mxCell id="2jVrClkyNnCrI50fUXQd-1" value="alumno" style="rounded=0;whiteSpace=wrap;html=1;" parent="1" vertex="1">
          <mxGeometry x="170" y="180" width="70" height="30" as="geometry" />
        </mxCell>
        <mxCell id="2jVrClkyNnCrI50fUXQd-2" value="&lt;u&gt;legajo&lt;/u&gt;" style="ellipse;whiteSpace=wrap;html=1;" parent="1" vertex="1">
          <mxGeometry x="150" y="90" width="60" height="30" as="geometry" />
        </mxCell>
        <mxCell id="2jVrClkyNnCrI50fUXQd-3" value="dni" style="ellipse;whiteSpace=wrap;html=1;" parent="1" vertex="1">
          <mxGeometry x="220" y="100" width="60" height="30" as="geometry" />
        </mxCell>
        <mxCell id="2jVrClkyNnCrI50fUXQd-4" value="nombre" style="ellipse;whiteSpace=wrap;html=1;" parent="1" vertex="1">
          <mxGeometry x="92.5" y="125" width="60" height="30" as="geometry" />
        </mxCell>
        <mxCell id="2jVrClkyNnCrI50fUXQd-5" value="domicilio" style="ellipse;whiteSpace=wrap;html=1;" parent="1" vertex="1">
          <mxGeometry x="90" y="180" width="60" height="30" as="geometry" />
        </mxCell>
        <mxCell id="2jVrClkyNnCrI50fUXQd-6" value="calle" style="ellipse;whiteSpace=wrap;html=1;" parent="1" vertex="1">
          <mxGeometry x="10" y="95" width="60" height="20" as="geometry" />
        </mxCell>
        <mxCell id="2jVrClkyNnCrI50fUXQd-7" value="codigo_postal" style="ellipse;whiteSpace=wrap;html=1;" parent="1" vertex="1">
          <mxGeometry x="-20" y="165" width="90" height="30" as="geometry" />
        </mxCell>
        <mxCell id="2jVrClkyNnCrI50fUXQd-8" value="numero" style="ellipse;whiteSpace=wrap;html=1;" parent="1" vertex="1">
          <mxGeometry y="130" width="60" height="20" as="geometry" />
        </mxCell>
        <mxCell id="2jVrClkyNnCrI50fUXQd-10" value="ciudad" style="ellipse;whiteSpace=wrap;html=1;" parent="1" vertex="1">
          <mxGeometry x="-5" y="205" width="60" height="30" as="geometry" />
        </mxCell>
        <mxCell id="2jVrClkyNnCrI50fUXQd-11" value="año_incorporacion" style="ellipse;whiteSpace=wrap;html=1;" parent="1" vertex="1">
          <mxGeometry x="414" y="90" width="120" height="40" as="geometry" />
        </mxCell>
        <mxCell id="2jVrClkyNnCrI50fUXQd-12" value="&lt;u&gt;codigoC&lt;/u&gt;" style="ellipse;whiteSpace=wrap;html=1;" parent="1" vertex="1">
          <mxGeometry x="510" y="50" width="60" height="30" as="geometry" />
        </mxCell>
        <mxCell id="OiiH3KWqHJdRT1orfoy_-72" style="edgeStyle=orthogonalEdgeStyle;rounded=0;orthogonalLoop=1;jettySize=auto;html=1;entryX=0.5;entryY=0;entryDx=0;entryDy=0;" edge="1" parent="1" source="2jVrClkyNnCrI50fUXQd-13" target="OiiH3KWqHJdRT1orfoy_-18">
          <mxGeometry relative="1" as="geometry" />
        </mxCell>
        <mxCell id="2jVrClkyNnCrI50fUXQd-13" value="carrera" style="rounded=0;whiteSpace=wrap;html=1;" parent="1" vertex="1">
          <mxGeometry x="540" y="180" width="70" height="30" as="geometry" />
        </mxCell>
        <mxCell id="2jVrClkyNnCrI50fUXQd-14" value="&lt;u&gt;cuit&lt;/u&gt;" style="ellipse;whiteSpace=wrap;html=1;" parent="1" vertex="1">
          <mxGeometry x="590" y="390" width="60" height="30" as="geometry" />
        </mxCell>
        <mxCell id="2jVrClkyNnCrI50fUXQd-22" value="nombre" style="ellipse;whiteSpace=wrap;html=1;" parent="1" vertex="1">
          <mxGeometry x="570" y="70" width="60" height="30" as="geometry" />
        </mxCell>
        <mxCell id="OiiH3KWqHJdRT1orfoy_-50" style="edgeStyle=orthogonalEdgeStyle;rounded=0;orthogonalLoop=1;jettySize=auto;html=1;exitX=0.5;exitY=1;exitDx=0;exitDy=0;" edge="1" parent="1" source="2jVrClkyNnCrI50fUXQd-27" target="OiiH3KWqHJdRT1orfoy_-19">
          <mxGeometry relative="1" as="geometry" />
        </mxCell>
        <mxCell id="2jVrClkyNnCrI50fUXQd-27" value="materia" style="rounded=0;whiteSpace=wrap;html=1;" parent="1" vertex="1">
          <mxGeometry x="355" y="335" width="70" height="30" as="geometry" />
        </mxCell>
        <mxCell id="2jVrClkyNnCrI50fUXQd-28" value="docente" style="rounded=0;whiteSpace=wrap;html=1;" parent="1" vertex="1">
          <mxGeometry x="630" y="332.5" width="70" height="30" as="geometry" />
        </mxCell>
        <mxCell id="2jVrClkyNnCrI50fUXQd-29" value="comision" style="rounded=0;whiteSpace=wrap;html=1;" parent="1" vertex="1">
          <mxGeometry x="355" y="500" width="70" height="30" as="geometry" />
        </mxCell>
        <mxCell id="OiiH3KWqHJdRT1orfoy_-4" value="año_ingreso" style="ellipse;whiteSpace=wrap;html=1;" vertex="1" parent="1">
          <mxGeometry x="630" y="440" width="85" height="30" as="geometry" />
        </mxCell>
        <mxCell id="OiiH3KWqHJdRT1orfoy_-5" value="edificio" style="ellipse;whiteSpace=wrap;html=1;" vertex="1" parent="1">
          <mxGeometry x="427.5" y="560" width="60" height="30" as="geometry" />
        </mxCell>
        <mxCell id="OiiH3KWqHJdRT1orfoy_-6" value="aula" style="ellipse;whiteSpace=wrap;html=1;" vertex="1" parent="1">
          <mxGeometry x="362.5" y="570" width="60" height="30" as="geometry" />
        </mxCell>
        <mxCell id="OiiH3KWqHJdRT1orfoy_-7" value="titulo_academico" style="ellipse;whiteSpace=wrap;html=1;" vertex="1" parent="1">
          <mxGeometry x="670" y="390" width="115" height="30" as="geometry" />
        </mxCell>
        <mxCell id="OiiH3KWqHJdRT1orfoy_-8" value="&lt;u&gt;codigo_materia&lt;/u&gt;" style="ellipse;whiteSpace=wrap;html=1;" vertex="1" parent="1">
          <mxGeometry x="450" y="315" width="100" height="40" as="geometry" />
        </mxCell>
        <mxCell id="OiiH3KWqHJdRT1orfoy_-9" value="dia" style="ellipse;whiteSpace=wrap;html=1;" vertex="1" parent="1">
          <mxGeometry x="480" y="375" width="60" height="30" as="geometry" />
        </mxCell>
        <mxCell id="OiiH3KWqHJdRT1orfoy_-10" value="horario_teoria" style="ellipse;whiteSpace=wrap;html=1;" vertex="1" parent="1">
          <mxGeometry x="460" y="430" width="100" height="40" as="geometry" />
        </mxCell>
        <mxCell id="OiiH3KWqHJdRT1orfoy_-15" style="edgeStyle=orthogonalEdgeStyle;rounded=0;orthogonalLoop=1;jettySize=auto;html=1;exitX=1;exitY=0.5;exitDx=0;exitDy=0;entryX=0;entryY=0.5;entryDx=0;entryDy=0;" edge="1" parent="1" source="OiiH3KWqHJdRT1orfoy_-13" target="2jVrClkyNnCrI50fUXQd-13">
          <mxGeometry relative="1" as="geometry" />
        </mxCell>
        <mxCell id="OiiH3KWqHJdRT1orfoy_-13" value="inscrito" style="rhombus;whiteSpace=wrap;html=1;" vertex="1" parent="1">
          <mxGeometry x="350" y="175" width="80" height="40" as="geometry" />
        </mxCell>
        <mxCell id="OiiH3KWqHJdRT1orfoy_-45" style="edgeStyle=orthogonalEdgeStyle;rounded=0;orthogonalLoop=1;jettySize=auto;html=1;exitX=0.5;exitY=0;exitDx=0;exitDy=0;entryX=0.5;entryY=1;entryDx=0;entryDy=0;" edge="1" parent="1" source="OiiH3KWqHJdRT1orfoy_-17" target="2jVrClkyNnCrI50fUXQd-13">
          <mxGeometry relative="1" as="geometry" />
        </mxCell>
        <mxCell id="OiiH3KWqHJdRT1orfoy_-46" style="edgeStyle=orthogonalEdgeStyle;rounded=0;orthogonalLoop=1;jettySize=auto;html=1;exitX=0.5;exitY=1;exitDx=0;exitDy=0;entryX=0.5;entryY=0;entryDx=0;entryDy=0;" edge="1" parent="1" source="OiiH3KWqHJdRT1orfoy_-17" target="2jVrClkyNnCrI50fUXQd-27">
          <mxGeometry relative="1" as="geometry" />
        </mxCell>
        <mxCell id="OiiH3KWqHJdRT1orfoy_-17" value="tiene" style="rhombus;whiteSpace=wrap;html=1;" vertex="1" parent="1">
          <mxGeometry x="350" y="250" width="80" height="40" as="geometry" />
        </mxCell>
        <mxCell id="OiiH3KWqHJdRT1orfoy_-18" value="trabaja" style="rhombus;whiteSpace=wrap;html=1;" vertex="1" parent="1">
          <mxGeometry x="620" y="250" width="80" height="40" as="geometry" />
        </mxCell>
        <mxCell id="OiiH3KWqHJdRT1orfoy_-51" style="edgeStyle=orthogonalEdgeStyle;rounded=0;orthogonalLoop=1;jettySize=auto;html=1;exitX=0.5;exitY=1;exitDx=0;exitDy=0;entryX=0.5;entryY=0;entryDx=0;entryDy=0;" edge="1" parent="1" source="OiiH3KWqHJdRT1orfoy_-19" target="2jVrClkyNnCrI50fUXQd-29">
          <mxGeometry relative="1" as="geometry" />
        </mxCell>
        <mxCell id="OiiH3KWqHJdRT1orfoy_-19" value="tiene" style="rhombus;whiteSpace=wrap;html=1;" vertex="1" parent="1">
          <mxGeometry x="350" y="410" width="80" height="40" as="geometry" />
        </mxCell>
        <mxCell id="OiiH3KWqHJdRT1orfoy_-28" value="" style="endArrow=none;html=1;rounded=0;entryX=1;entryY=0.5;entryDx=0;entryDy=0;exitX=0;exitY=0;exitDx=0;exitDy=0;" edge="1" parent="1" source="2jVrClkyNnCrI50fUXQd-5" target="2jVrClkyNnCrI50fUXQd-6">
          <mxGeometry width="50" height="50" relative="1" as="geometry">
            <mxPoint x="100" y="210" as="sourcePoint" />
            <mxPoint x="150" y="160" as="targetPoint" />
          </mxGeometry>
        </mxCell>
        <mxCell id="OiiH3KWqHJdRT1orfoy_-29" value="" style="endArrow=none;html=1;rounded=0;entryX=1;entryY=0.5;entryDx=0;entryDy=0;exitX=0.059;exitY=0.249;exitDx=0;exitDy=0;exitPerimeter=0;" edge="1" parent="1" source="2jVrClkyNnCrI50fUXQd-5" target="2jVrClkyNnCrI50fUXQd-8">
          <mxGeometry width="50" height="50" relative="1" as="geometry">
            <mxPoint x="128" y="265" as="sourcePoint" />
            <mxPoint x="70" y="110" as="targetPoint" />
          </mxGeometry>
        </mxCell>
        <mxCell id="OiiH3KWqHJdRT1orfoy_-31" value="" style="endArrow=none;html=1;rounded=0;entryX=1;entryY=0.5;entryDx=0;entryDy=0;exitX=0.028;exitY=0.347;exitDx=0;exitDy=0;exitPerimeter=0;" edge="1" parent="1" source="2jVrClkyNnCrI50fUXQd-5" target="2jVrClkyNnCrI50fUXQd-7">
          <mxGeometry width="50" height="50" relative="1" as="geometry">
            <mxPoint x="118" y="285" as="sourcePoint" />
            <mxPoint x="60" y="130" as="targetPoint" />
          </mxGeometry>
        </mxCell>
        <mxCell id="OiiH3KWqHJdRT1orfoy_-32" value="" style="endArrow=none;html=1;rounded=0;entryX=1;entryY=0.5;entryDx=0;entryDy=0;exitX=0;exitY=0.5;exitDx=0;exitDy=0;" edge="1" parent="1" source="2jVrClkyNnCrI50fUXQd-5" target="2jVrClkyNnCrI50fUXQd-10">
          <mxGeometry width="50" height="50" relative="1" as="geometry">
            <mxPoint x="118" y="325" as="sourcePoint" />
            <mxPoint x="60" y="170" as="targetPoint" />
          </mxGeometry>
        </mxCell>
        <mxCell id="OiiH3KWqHJdRT1orfoy_-53" style="edgeStyle=orthogonalEdgeStyle;rounded=0;orthogonalLoop=1;jettySize=auto;html=1;entryX=0;entryY=0.5;entryDx=0;entryDy=0;exitX=0.5;exitY=1;exitDx=0;exitDy=0;" edge="1" parent="1" source="OiiH3KWqHJdRT1orfoy_-33" target="2jVrClkyNnCrI50fUXQd-29">
          <mxGeometry relative="1" as="geometry" />
        </mxCell>
        <mxCell id="OiiH3KWqHJdRT1orfoy_-33" value="inscripcion_en&amp;nbsp;" style="rhombus;whiteSpace=wrap;html=1;" vertex="1" parent="1">
          <mxGeometry x="152.5" y="290" width="105" height="50" as="geometry" />
        </mxCell>
        <mxCell id="OiiH3KWqHJdRT1orfoy_-35" value="año&lt;span style=&quot;color: rgba(0, 0, 0, 0); font-family: monospace; font-size: 0px; text-align: start; text-wrap-mode: nowrap;&quot;&gt;%3CmxGraphModel%3E%3Croot%3E%3CmxCell%20id%3D%220%22%2F%3E%3CmxCell%20id%3D%221%22%20parent%3D%220%22%2F%3E%3CmxCell%20id%3D%222%22%20value%3D%22dni%22%20style%3D%22ellipse%3BwhiteSpace%3Dwrap%3Bhtml%3D1%3B%22%20vertex%3D%221%22%20parent%3D%221%22%3E%3CmxGeometry%20x%3D%22200%22%20y%3D%22100%22%20width%3D%2260%22%20height%3D%2230%22%20as%3D%22geometry%22%2F%3E%3C%2FmxCell%3E%3C%2Froot%3E%3C%2FmxGraphModel%3E&lt;/span&gt;" style="ellipse;whiteSpace=wrap;html=1;" vertex="1" parent="1">
          <mxGeometry x="100" y="360" width="60" height="30" as="geometry" />
        </mxCell>
        <mxCell id="OiiH3KWqHJdRT1orfoy_-36" value="nota_final" style="ellipse;whiteSpace=wrap;html=1;" vertex="1" parent="1">
          <mxGeometry x="70" y="315" width="60" height="30" as="geometry" />
        </mxCell>
        <mxCell id="OiiH3KWqHJdRT1orfoy_-37" value="fecha_acta" style="ellipse;whiteSpace=wrap;html=1;" vertex="1" parent="1">
          <mxGeometry x="80" y="270" width="70" height="30" as="geometry" />
        </mxCell>
        <mxCell id="OiiH3KWqHJdRT1orfoy_-38" value="correlativa_de" style="rhombus;whiteSpace=wrap;html=1;" vertex="1" parent="1">
          <mxGeometry x="240" y="335" width="100" height="50" as="geometry" />
        </mxCell>
        <mxCell id="OiiH3KWqHJdRT1orfoy_-39" value="" style="endArrow=none;html=1;rounded=0;entryX=1;entryY=0.5;entryDx=0;entryDy=0;" edge="1" parent="1" target="2jVrClkyNnCrI50fUXQd-4">
          <mxGeometry width="50" height="50" relative="1" as="geometry">
            <mxPoint x="170" y="180" as="sourcePoint" />
            <mxPoint x="250" y="210" as="targetPoint" />
          </mxGeometry>
        </mxCell>
        <mxCell id="OiiH3KWqHJdRT1orfoy_-40" value="" style="endArrow=none;html=1;rounded=0;entryX=0.5;entryY=1;entryDx=0;entryDy=0;exitX=0.32;exitY=0.001;exitDx=0;exitDy=0;exitPerimeter=0;" edge="1" parent="1" source="2jVrClkyNnCrI50fUXQd-1" target="2jVrClkyNnCrI50fUXQd-2">
          <mxGeometry width="50" height="50" relative="1" as="geometry">
            <mxPoint x="177" y="200" as="sourcePoint" />
            <mxPoint x="160" y="160" as="targetPoint" />
          </mxGeometry>
        </mxCell>
        <mxCell id="OiiH3KWqHJdRT1orfoy_-41" value="" style="endArrow=none;html=1;rounded=0;entryX=0.5;entryY=1;entryDx=0;entryDy=0;exitX=0.75;exitY=0;exitDx=0;exitDy=0;" edge="1" parent="1" source="2jVrClkyNnCrI50fUXQd-1" target="2jVrClkyNnCrI50fUXQd-3">
          <mxGeometry width="50" height="50" relative="1" as="geometry">
            <mxPoint x="247" y="190" as="sourcePoint" />
            <mxPoint x="230" y="150" as="targetPoint" />
          </mxGeometry>
        </mxCell>
        <mxCell id="OiiH3KWqHJdRT1orfoy_-42" value="" style="endArrow=none;html=1;rounded=0;entryX=1;entryY=1;entryDx=0;entryDy=0;exitX=0;exitY=0;exitDx=0;exitDy=0;" edge="1" parent="1" source="2jVrClkyNnCrI50fUXQd-13" target="2jVrClkyNnCrI50fUXQd-11">
          <mxGeometry width="50" height="50" relative="1" as="geometry">
            <mxPoint x="527" y="190" as="sourcePoint" />
            <mxPoint x="510" y="150" as="targetPoint" />
          </mxGeometry>
        </mxCell>
        <mxCell id="OiiH3KWqHJdRT1orfoy_-43" value="" style="endArrow=none;html=1;rounded=0;entryX=0.5;entryY=1;entryDx=0;entryDy=0;exitX=0.5;exitY=0;exitDx=0;exitDy=0;" edge="1" parent="1" source="2jVrClkyNnCrI50fUXQd-13" target="2jVrClkyNnCrI50fUXQd-12">
          <mxGeometry width="50" height="50" relative="1" as="geometry">
            <mxPoint x="607" y="190" as="sourcePoint" />
            <mxPoint x="590" y="150" as="targetPoint" />
          </mxGeometry>
        </mxCell>
        <mxCell id="OiiH3KWqHJdRT1orfoy_-44" value="" style="endArrow=none;html=1;rounded=0;entryX=0.5;entryY=1;entryDx=0;entryDy=0;exitX=0.75;exitY=0;exitDx=0;exitDy=0;" edge="1" parent="1" source="2jVrClkyNnCrI50fUXQd-13" target="2jVrClkyNnCrI50fUXQd-22">
          <mxGeometry width="50" height="50" relative="1" as="geometry">
            <mxPoint x="617" y="170" as="sourcePoint" />
            <mxPoint x="600" y="130" as="targetPoint" />
          </mxGeometry>
        </mxCell>
        <mxCell id="OiiH3KWqHJdRT1orfoy_-47" value="" style="endArrow=none;html=1;rounded=0;entryX=1;entryY=0.5;entryDx=0;entryDy=0;exitX=0;exitY=0.5;exitDx=0;exitDy=0;" edge="1" parent="1" source="OiiH3KWqHJdRT1orfoy_-8" target="2jVrClkyNnCrI50fUXQd-27">
          <mxGeometry width="50" height="50" relative="1" as="geometry">
            <mxPoint x="437" y="435" as="sourcePoint" />
            <mxPoint x="420" y="395" as="targetPoint" />
          </mxGeometry>
        </mxCell>
        <mxCell id="OiiH3KWqHJdRT1orfoy_-48" value="" style="endArrow=none;html=1;rounded=0;entryX=1;entryY=0.75;entryDx=0;entryDy=0;exitX=0;exitY=0.333;exitDx=0;exitDy=0;exitPerimeter=0;" edge="1" parent="1" source="OiiH3KWqHJdRT1orfoy_-9" target="2jVrClkyNnCrI50fUXQd-27">
          <mxGeometry width="50" height="50" relative="1" as="geometry">
            <mxPoint x="457" y="415" as="sourcePoint" />
            <mxPoint x="440" y="375" as="targetPoint" />
          </mxGeometry>
        </mxCell>
        <mxCell id="OiiH3KWqHJdRT1orfoy_-49" value="" style="endArrow=none;html=1;rounded=0;entryX=0.88;entryY=0.996;entryDx=0;entryDy=0;exitX=0;exitY=0;exitDx=0;exitDy=0;entryPerimeter=0;" edge="1" parent="1" source="OiiH3KWqHJdRT1orfoy_-10" target="2jVrClkyNnCrI50fUXQd-27">
          <mxGeometry width="50" height="50" relative="1" as="geometry">
            <mxPoint x="437" y="445" as="sourcePoint" />
            <mxPoint x="420" y="405" as="targetPoint" />
          </mxGeometry>
        </mxCell>
        <mxCell id="OiiH3KWqHJdRT1orfoy_-54" value="" style="endArrow=none;html=1;rounded=0;entryX=0.5;entryY=0;entryDx=0;entryDy=0;exitX=0.5;exitY=1;exitDx=0;exitDy=0;" edge="1" parent="1" source="2jVrClkyNnCrI50fUXQd-29" target="OiiH3KWqHJdRT1orfoy_-6">
          <mxGeometry width="50" height="50" relative="1" as="geometry">
            <mxPoint x="367" y="655" as="sourcePoint" />
            <mxPoint x="350" y="615" as="targetPoint" />
          </mxGeometry>
        </mxCell>
        <mxCell id="OiiH3KWqHJdRT1orfoy_-55" value="" style="endArrow=none;html=1;rounded=0;entryX=1;entryY=1;entryDx=0;entryDy=0;exitX=0.241;exitY=0.077;exitDx=0;exitDy=0;exitPerimeter=0;" edge="1" parent="1" source="OiiH3KWqHJdRT1orfoy_-5" target="2jVrClkyNnCrI50fUXQd-29">
          <mxGeometry width="50" height="50" relative="1" as="geometry">
            <mxPoint x="415" y="611" as="sourcePoint" />
            <mxPoint x="400" y="645" as="targetPoint" />
          </mxGeometry>
        </mxCell>
        <mxCell id="OiiH3KWqHJdRT1orfoy_-58" style="edgeStyle=orthogonalEdgeStyle;rounded=0;orthogonalLoop=1;jettySize=auto;html=1;entryX=0.092;entryY=0.018;entryDx=0;entryDy=0;entryPerimeter=0;exitX=0.5;exitY=0;exitDx=0;exitDy=0;" edge="1" parent="1" source="OiiH3KWqHJdRT1orfoy_-38" target="2jVrClkyNnCrI50fUXQd-27">
          <mxGeometry relative="1" as="geometry" />
        </mxCell>
        <mxCell id="OiiH3KWqHJdRT1orfoy_-59" style="edgeStyle=orthogonalEdgeStyle;rounded=0;orthogonalLoop=1;jettySize=auto;html=1;exitX=0.5;exitY=1;exitDx=0;exitDy=0;entryX=0.071;entryY=1;entryDx=0;entryDy=0;entryPerimeter=0;" edge="1" parent="1" source="OiiH3KWqHJdRT1orfoy_-38" target="2jVrClkyNnCrI50fUXQd-27">
          <mxGeometry relative="1" as="geometry" />
        </mxCell>
        <mxCell id="OiiH3KWqHJdRT1orfoy_-60" value="&lt;u&gt;num_comision&lt;/u&gt;" style="ellipse;whiteSpace=wrap;html=1;" vertex="1" parent="1">
          <mxGeometry x="257.5" y="560" width="100" height="30" as="geometry" />
        </mxCell>
        <mxCell id="OiiH3KWqHJdRT1orfoy_-61" value="" style="endArrow=none;html=1;rounded=0;entryX=0.752;entryY=0.06;entryDx=0;entryDy=0;exitX=0;exitY=1;exitDx=0;exitDy=0;entryPerimeter=0;" edge="1" parent="1" source="2jVrClkyNnCrI50fUXQd-29" target="OiiH3KWqHJdRT1orfoy_-60">
          <mxGeometry width="50" height="50" relative="1" as="geometry">
            <mxPoint x="380" y="595" as="sourcePoint" />
            <mxPoint x="380" y="625" as="targetPoint" />
          </mxGeometry>
        </mxCell>
        <mxCell id="OiiH3KWqHJdRT1orfoy_-62" value="" style="endArrow=none;html=1;rounded=0;entryX=0;entryY=0;entryDx=0;entryDy=0;exitX=1;exitY=0.5;exitDx=0;exitDy=0;" edge="1" parent="1" source="OiiH3KWqHJdRT1orfoy_-37" target="OiiH3KWqHJdRT1orfoy_-33">
          <mxGeometry width="50" height="50" relative="1" as="geometry">
            <mxPoint x="230" y="270" as="sourcePoint" />
            <mxPoint x="230" y="300" as="targetPoint" />
          </mxGeometry>
        </mxCell>
        <mxCell id="OiiH3KWqHJdRT1orfoy_-63" value="" style="endArrow=none;html=1;rounded=0;exitX=1;exitY=0.5;exitDx=0;exitDy=0;" edge="1" parent="1" source="OiiH3KWqHJdRT1orfoy_-36" target="OiiH3KWqHJdRT1orfoy_-33">
          <mxGeometry width="50" height="50" relative="1" as="geometry">
            <mxPoint x="170" y="350" as="sourcePoint" />
            <mxPoint x="170" y="380" as="targetPoint" />
          </mxGeometry>
        </mxCell>
        <mxCell id="OiiH3KWqHJdRT1orfoy_-64" value="" style="endArrow=none;html=1;rounded=0;entryX=0;entryY=1;entryDx=0;entryDy=0;exitX=1;exitY=0.5;exitDx=0;exitDy=0;" edge="1" parent="1" source="OiiH3KWqHJdRT1orfoy_-35" target="OiiH3KWqHJdRT1orfoy_-33">
          <mxGeometry width="50" height="50" relative="1" as="geometry">
            <mxPoint x="170" y="360" as="sourcePoint" />
            <mxPoint x="170" y="390" as="targetPoint" />
          </mxGeometry>
        </mxCell>
        <mxCell id="OiiH3KWqHJdRT1orfoy_-67" value="" style="endArrow=none;html=1;rounded=0;exitX=0.672;exitY=0.028;exitDx=0;exitDy=0;exitPerimeter=0;entryX=0.142;entryY=1.017;entryDx=0;entryDy=0;entryPerimeter=0;" edge="1" parent="1" source="2jVrClkyNnCrI50fUXQd-14" target="2jVrClkyNnCrI50fUXQd-28">
          <mxGeometry width="50" height="50" relative="1" as="geometry">
            <mxPoint x="690" y="312.5" as="sourcePoint" />
            <mxPoint x="640" y="367.5" as="targetPoint" />
          </mxGeometry>
        </mxCell>
        <mxCell id="OiiH3KWqHJdRT1orfoy_-68" value="" style="endArrow=none;html=1;rounded=0;entryX=0.5;entryY=1;entryDx=0;entryDy=0;" edge="1" parent="1" target="2jVrClkyNnCrI50fUXQd-28">
          <mxGeometry width="50" height="50" relative="1" as="geometry">
            <mxPoint x="666" y="440.5" as="sourcePoint" />
            <mxPoint x="740" y="372.5" as="targetPoint" />
          </mxGeometry>
        </mxCell>
        <mxCell id="OiiH3KWqHJdRT1orfoy_-69" value="" style="endArrow=none;html=1;rounded=0;entryX=0.5;entryY=0;entryDx=0;entryDy=0;exitX=0.75;exitY=1;exitDx=0;exitDy=0;" edge="1" parent="1" source="2jVrClkyNnCrI50fUXQd-28" target="OiiH3KWqHJdRT1orfoy_-7">
          <mxGeometry width="50" height="50" relative="1" as="geometry">
            <mxPoint x="730" y="372.5" as="sourcePoint" />
            <mxPoint x="730" y="402.5" as="targetPoint" />
          </mxGeometry>
        </mxCell>
        <mxCell id="OiiH3KWqHJdRT1orfoy_-75" style="edgeStyle=orthogonalEdgeStyle;rounded=0;orthogonalLoop=1;jettySize=auto;html=1;exitX=0.5;exitY=1;exitDx=0;exitDy=0;entryX=0.42;entryY=0.029;entryDx=0;entryDy=0;entryPerimeter=0;" edge="1" parent="1" source="OiiH3KWqHJdRT1orfoy_-18" target="2jVrClkyNnCrI50fUXQd-28">
          <mxGeometry relative="1" as="geometry" />
        </mxCell>
      </root>
    </mxGraphModel>
  </diagram>
</mxfile>
